<svg xmlns="http://www.w3.org/2000/svg" viewBox="0 0 212.88 51.46" xml:space="preserve"><path d="M29.82 36.85c0-2.42-1.47-4.04-4.55-4.92-2.94-.88-6.31-1.76-9.91-2.72C5.6 26.71.75 22.16.75 15.56.97 5.06 7.21-.08 19.54 0c11.74 0 17.84 5.14 18.42 15.49h-5.73c-2.13 0-3.6-1.03-4.55-2.94-1.69-2.86-4.7-4.26-9.03-4.26-5.28.07-7.93 2.05-8.15 5.87 0 3.16 3.16 5.43 9.69 6.9a115 115 0 0 1 11.89 3.45c5.58 1.91 8.22 6.02 7.93 12.33-.59 9.76-7.19 14.61-19.82 14.61C6.98 51.45.3 45.95 0 35.08h9.91c.37 5.28 3.74 7.93 10.28 7.93s9.7-2.05 9.63-6.16m50.2-5.5c0 13.36-5.94 20.11-17.69 20.11-11.74 0-17.61-6.75-17.61-20.11 0-13.5 5.87-20.19 17.61-20.19 11.75 0 17.69 6.68 17.69 20.19m-25.4 0c.07 7.56 2.64 11.38 7.63 11.38s7.49-3.96 7.56-11.67c0-7.56-2.5-11.3-7.49-11.3-5.13-.01-7.7 3.88-7.7 11.59M94.48 5.44v45.14h-9.76V.67h5.06a4.8 4.8 0 0 1 4.7 4.77m42.5 6.31-13.73 38.83H112.9L99.25 11.75h10.79l7.85 27.23 6.75-23.78c.73-2.27 2.35-3.45 4.77-3.45h7.57zm12.26 10.13h-9.76c1.17-7.19 6.24-10.72 15.19-10.72 10.72 0 16.15 3.52 16.37 10.72v13.21c0 10.72-6.46 15.49-16.96 16.22-9.32.73-15.78-3.6-15.78-12.18.22-9.32 6.97-11.82 16.81-12.77 4.18-.51 6.31-1.76 6.31-3.89-.22-2.2-2.28-3.3-6.31-3.3-3.45-.01-5.36.88-5.87 2.71m12.33 12.77v-3.6a42.21 42.21 0 0 1-7.78 2.35c-3.89.73-5.87 2.57-5.87 5.43.22 3.08 1.83 4.55 4.92 4.55 5.42.01 8.73-3.22 8.73-8.73m14.16-4.11c.29-12.55 6.97-18.79 19.96-18.79h1.4v10.13h-3.3c-5.43 0-8.15 2.86-8.15 8.51v20.19h-9.91V30.54zm32.45-18.79c3.16 0 4.7 1.54 4.7 4.7v34.13h-9.76V11.75h5.06z" fill="#1a4389"/><path d="M212.87 9.45h-5.8a3.96 3.96 0 0 1-3.96-3.96V.67h5.8a3.96 3.96 0 0 1 3.96 3.96v4.82z" fill="#44ab33"/></svg>